<svg id="Ñëîé_1" data-name="Ñëîé 1" xmlns="http://www.w3.org/2000/svg" xmlns:xlink="http://www.w3.org/1999/xlink" viewBox="0 0 1190.55 822.05"><defs><style>.cls-1{fill:url(#linear-gradient);}.cls-10,.cls-11,.cls-12,.cls-2,.cls-3,.cls-4,.cls-5,.cls-6,.cls-7,.cls-8,.cls-9{fill-rule:evenodd;}.cls-2{fill:url(#linear-gradient-2);}.cls-3{fill:url(#linear-gradient-3);}.cls-4{fill:url(#linear-gradient-4);}.cls-5{fill:url(#linear-gradient-5);}.cls-6{fill:url(#linear-gradient-6);}.cls-7{fill:url(#linear-gradient-7);}.cls-8{fill:url(#linear-gradient-8);}.cls-9{fill:url(#linear-gradient-9);}.cls-10{fill:url(#linear-gradient-10);}.cls-11{fill:url(#linear-gradient-11);}.cls-12{fill:url(#linear-gradient-12);}</style><linearGradient id="linear-gradient" x1="595.28" y1="512" x2="595.28" y2="177" gradientUnits="userSpaceOnUse"><stop offset="0.18" stop-color="#e2eeff"/><stop offset="0.68" stop-color="#bcdeff"/><stop offset="1" stop-color="#a8d6ff"/></linearGradient><linearGradient id="linear-gradient-2" x1="5163.73" y1="485.63" x2="5163.09" y2="533.9" gradientTransform="translate(-4568)" gradientUnits="userSpaceOnUse"><stop offset="0" stop-color="#fde73d"/><stop offset="0.17" stop-color="#fcde3c"/><stop offset="0.67" stop-color="#fbca3a"/><stop offset="1" stop-color="#fac339"/></linearGradient><linearGradient id="linear-gradient-3" x1="5163.8" y1="501.83" x2="5162.97" y2="564.94" gradientTransform="translate(-4568)" gradientUnits="userSpaceOnUse"><stop offset="0.02" stop-color="#f6a40b"/><stop offset="0.04" stop-color="#f5a40b"/><stop offset="0.68" stop-color="#e39608"/><stop offset="1" stop-color="#c18007"/></linearGradient><linearGradient id="linear-gradient-4" x1="5163.8" y1="501.83" x2="5162.97" y2="564.94" gradientTransform="translate(-4568)" gradientUnits="userSpaceOnUse"><stop offset="0" stop-color="#fde95e"/><stop offset="0.06" stop-color="#fde458"/><stop offset="0.39" stop-color="#fbcf3b"/><stop offset="0.68" stop-color="#f9c22a"/><stop offset="0.89" stop-color="#f9bd24"/></linearGradient><linearGradient id="linear-gradient-5" x1="638.43" y1="-4163.66" x2="865.41" y2="-4154.49" gradientTransform="matrix(0, -1, -1, 0, -3562.06, 1374.11)" gradientUnits="userSpaceOnUse"><stop offset="0" stop-color="#f6a610"/><stop offset="1" stop-color="#eb9c09"/></linearGradient><linearGradient id="linear-gradient-6" x1="638.43" y1="-4163.66" x2="865.41" y2="-4154.49" gradientTransform="matrix(0, -1, -1, 0, -3562.06, 1374.11)" gradientUnits="userSpaceOnUse"><stop offset="0.53" stop-color="#f9b710"/><stop offset="0.64" stop-color="#f9b813"/><stop offset="0.72" stop-color="#fabd1e"/><stop offset="0.81" stop-color="#fac530"/><stop offset="0.89" stop-color="#fbcf49"/><stop offset="0.97" stop-color="#fcdd69"/><stop offset="1" stop-color="#fde378"/></linearGradient><linearGradient id="linear-gradient-7" x1="5163.05" y1="700.99" x2="5163.93" y2="562.87" gradientTransform="translate(-4568)" gradientUnits="userSpaceOnUse"><stop offset="0.04" stop-color="#a16b06"/><stop offset="0.29" stop-color="#b97b07"/><stop offset="0.76" stop-color="#e29608"/><stop offset="1" stop-color="#f1a009"/></linearGradient><linearGradient id="linear-gradient-8" x1="5163.05" y1="700.99" x2="5163.93" y2="562.87" gradientTransform="translate(-4568)" gradientUnits="userSpaceOnUse"><stop offset="0.25" stop-color="#edab06"/><stop offset="0.4" stop-color="#efb00e"/><stop offset="0.62" stop-color="#f3bf23"/><stop offset="0.89" stop-color="#fad846"/><stop offset="1" stop-color="#fde357"/></linearGradient><linearGradient id="linear-gradient-9" x1="454.52" y1="-4166.53" x2="808.49" y2="-4152.22" gradientTransform="matrix(0, -1, -1, 0, -3562.06, 1374.11)" gradientUnits="userSpaceOnUse"><stop offset="0.31" stop-color="#a16b06"/><stop offset="0.36" stop-color="#a87006"/><stop offset="0.79" stop-color="#de9308"/><stop offset="1" stop-color="#f3a109"/></linearGradient><linearGradient id="linear-gradient-10" x1="454.5" y1="-4166.14" x2="808.47" y2="-4151.84" gradientTransform="matrix(0, -1, -1, 0, -3562.06, 1374.11)" gradientUnits="userSpaceOnUse"><stop offset="0.46" stop-color="#edab06"/><stop offset="0.54" stop-color="#eeb011"/><stop offset="0.68" stop-color="#f2be2d"/><stop offset="0.85" stop-color="#f8d55a"/><stop offset="1" stop-color="#fdea85"/></linearGradient><linearGradient id="linear-gradient-11" x1="5164.54" y1="835.13" x2="5161.72" y2="690.19" gradientTransform="translate(-4568)" gradientUnits="userSpaceOnUse"><stop offset="0.11" stop-color="#ac7206"/><stop offset="0.39" stop-color="#cc8807"/><stop offset="0.7" stop-color="#ea9c09"/><stop offset="0.87" stop-color="#f5a309"/></linearGradient><linearGradient id="linear-gradient-12" x1="5164.54" y1="835.13" x2="5161.71" y2="690.19" gradientTransform="translate(-4568)" gradientUnits="userSpaceOnUse"><stop offset="0" stop-color="#f9b408"/><stop offset="0.19" stop-color="#f9b60c"/><stop offset="0.38" stop-color="#faba17"/><stop offset="0.56" stop-color="#fac22b"/><stop offset="0.73" stop-color="#fbcd46"/><stop offset="0.91" stop-color="#fcdb68"/><stop offset="1" stop-color="#fde37d"/></linearGradient></defs><rect class="cls-1" width="1190.55" height="822.05"/><path class="cls-2" d="M1143.15,486.53c-141.56,19.5-591.82,34.4-588.1,5.23-79.78,23.14-486.6,20.61-452.17-11.42C59.64,490.18,26.69,494.74,0,496.58V539c396.85-22.47,793.7,29.12,1190.55,4.22V502.57C1154.39,499.09,1128.45,493.17,1143.15,486.53Z" transform="translate(0 0)"/><path class="cls-3" d="M1059.73,499.68c-144.49,10.87-371.23,23.38-428.62-2.53C536.39,524.68,220.5,527.79,195,490.81c-56.86,5.55-141,9.4-195,23.85v75.27c396.85-70.33,793.7,47.94,1190.55-21.7V506.5C1150.18,513.42,1090.25,524.48,1059.73,499.68Z" transform="translate(0 0)"/><path class="cls-4" d="M1059.73,499.68c-144.49,10.87-502.65,31.39-428.62-2.53C536.39,524.68,140,547.56,195,490.81c-56.86,5.55-141,9.4-195,23.85v75.27c396.85-70.33,793.7,47.94,1190.55-21.7V510.05C1151.31,521.73,1038.25,528.5,1059.73,499.68Z" transform="translate(0 0)"/><path class="cls-5" d="M881,503.35C518,569.1,129.5,577,65.74,527.25c-22.93-.88-42.37,6.49-65.74,11v76.34c396.85,96.24,793.7-66.51,1190.55,29.86v-101C1086,519,941,562.16,881,503.35Z" transform="translate(0 0)"/><path class="cls-6" d="M881.25,503C587,555.23-29.5,617.66,65.74,527.25c-22.93-.88-42.37,6.49-65.74,11v76.34c423,109,793.7-66.51,1190.55,29.86v-101C1083.26,519.85,778.21,596.49,881.25,503Z" transform="translate(0 0)"/><path class="cls-7" d="M275.84,559.16C141.45,601.2,91.6,608,0,599.08V732.25c362.64,2.77,753.51.15,1190.55.54V561.41C888.67,646.67,289.33,660.55,275.84,559.16Z" transform="translate(0 0)"/><path class="cls-8" d="M275.84,559.16C120.13,591.54,56.32,601.57,0,598.9V732.25c362.64,2.77,753.51.15,1190.55.54V561.41C883.33,651.54-82,673,275.84,559.16Z" transform="translate(0 0)"/><path class="cls-9" d="M804.18,552.32c-175.62,70-472.18,200.62-697.15,93C72.74,668.93,34.81,691.54,0,681.05v64.46c396.85,146,793.7-100.92,1190.55,45.31v-152C1082.67,665.59,864.67,595.59,804.18,552.32Z" transform="translate(0 0)"/><path class="cls-10" d="M876,634.06c75.12-21.92-108-48.56-71.82-81.74-195.51,83-845.18,264-697.15,93C77.46,641,29.49,671.53,0,665.54v80c396.86,146.75,796.15,13,1190.55,46.07V658C1028,702.8,621,708.48,876,634.06Z" transform="translate(0 0)"/><path class="cls-11" d="M381.31,689.71C225.2,722.9,182.09,737.93,0,741.49v80.56H1190.55V718.52C949,788.89,454,771.86,381.31,689.71Z" transform="translate(0 0)"/><path class="cls-12" d="M429,768.08c35.79-12.23-116.5-35.48-47.69-78.37C225.2,722.9,182.09,737.93,0,741.49v80.56H1190.55V718.76C1000,791.73,237.5,844.71,429,768.08Z" transform="translate(0 0)"/></svg>